<svg width="203" height="66" viewBox="0 0 203 66" fill="none" xmlns="http://www.w3.org/2000/svg">
<path d="M82.53 43V19.025C82.53 19.025 82.5417 18.99 82.565 18.92C82.6117 18.8267 82.74 18.78 82.95 18.78H83.65C83.8833 18.78 84.0117 18.8267 84.035 18.92C84.0817 18.99 84.105 19.025 84.105 19.025V42.58C84.105 42.72 84.0817 42.825 84.035 42.895C83.9883 42.9417 83.8483 42.9767 83.615 43C83.405 43 83.0433 43 82.53 43ZM77.21 20.005V18.92C77.21 18.64 77.3617 18.5 77.665 18.5H89.565V19.585C89.565 19.725 89.53 19.83 89.46 19.9C89.39 19.97 89.2733 20.005 89.11 20.005H77.21ZM92.6182 32.5C92.2915 32.5 92.1399 32.4533 92.1632 32.36C92.2099 32.2433 92.2332 32.1033 92.2332 31.94V19.095C92.2332 18.9783 92.2332 18.85 92.2332 18.71C92.2565 18.57 92.3265 18.5 92.4432 18.5H95.9782C97.4482 18.5 98.6149 18.7917 99.4782 19.375C100.365 19.935 100.995 20.705 101.368 21.685C101.765 22.665 101.963 23.7967 101.963 25.08C101.963 26.3633 101.823 27.4717 101.543 28.405C101.263 29.315 100.843 30.0733 100.283 30.68C99.7465 31.2867 99.0932 31.7417 98.3232 32.045C97.5765 32.3483 96.7365 32.5 95.8032 32.5H92.6182ZM91.8482 43V18.92C91.8482 18.92 91.8599 18.85 91.8832 18.71C91.9299 18.57 92.0582 18.5 92.2682 18.5H93.0032C93.2132 18.5 93.3299 18.57 93.3532 18.71C93.3999 18.85 93.4232 18.92 93.4232 18.92V42.58C93.4232 42.72 93.3999 42.825 93.3532 42.895C93.3065 42.9417 93.1665 42.9767 92.9332 43C92.7232 43 92.3615 43 91.8482 43ZM101.053 43.035C100.96 43.035 100.832 43.0233 100.668 43C100.528 43 100.353 43 100.143 43C99.9332 41.04 99.6182 39.3717 99.1982 37.995C98.7782 36.6183 98.3465 35.4983 97.9032 34.635C97.4599 33.7717 97.0865 33.1533 96.7832 32.78C96.4799 32.3833 96.3282 32.185 96.3282 32.185C96.3282 32.185 96.3049 32.1267 96.2582 32.01C96.2349 31.87 96.3165 31.7533 96.5032 31.66L97.2382 31.275C97.4249 31.275 97.5649 31.345 97.6582 31.485C97.6582 31.485 97.8332 31.7183 98.1832 32.185C98.5565 32.6517 98.9882 33.3517 99.4782 34.285C99.9682 35.2183 100.435 36.3733 100.878 37.75C101.322 39.1033 101.637 40.69 101.823 42.51C101.823 42.6967 101.777 42.825 101.683 42.895C101.613 42.965 101.403 43.0117 101.053 43.035ZM93.2482 30.995H95.8732C96.8999 30.995 97.7282 30.7617 98.3582 30.295C98.9882 29.8283 99.4665 29.1517 99.7932 28.265C100.12 27.3783 100.283 26.2933 100.283 25.01C100.283 24.0767 100.155 23.225 99.8982 22.455C99.6649 21.685 99.2332 21.0783 98.6032 20.635C97.9965 20.1683 97.1449 19.935 96.0482 19.935H93.2482V30.995ZM104.339 43.035C104.246 43.035 104.106 43.035 103.919 43.035C103.756 43.035 103.569 43.0233 103.359 43L110.079 18.57C110.102 18.43 110.277 18.36 110.604 18.36C110.721 18.36 110.837 18.3717 110.954 18.395C111.094 18.395 111.199 18.4067 111.269 18.43L118.024 42.58C118.071 42.7433 118.047 42.86 117.954 42.93C117.884 43 117.697 43.035 117.394 43.035C117.277 43.035 117.137 43.035 116.974 43.035C116.811 43.035 116.624 43.0233 116.414 43L112.284 27.53C112.027 26.55 111.782 25.605 111.549 24.695C111.339 23.785 111.152 22.9683 110.989 22.245C110.826 21.5217 110.732 20.985 110.709 20.635C110.662 20.985 110.557 21.5217 110.394 22.245C110.254 22.9683 110.067 23.785 109.834 24.695C109.624 25.605 109.379 26.55 109.099 27.53L105.144 42.685C105.097 42.825 105.016 42.9183 104.899 42.965C104.806 43.0117 104.619 43.035 104.339 43.035ZM106.509 36.035V34.53H115.399V36.035H106.509ZM124.029 43.315C123.795 43.315 123.597 43.1283 123.434 42.755C123.27 42.3817 123.107 41.8917 122.944 41.285C122.664 40.305 122.337 39.0917 121.964 37.645C121.59 36.175 121.182 34.6117 120.739 32.955C120.295 31.275 119.852 29.63 119.409 28.02C118.989 26.3867 118.604 24.8933 118.254 23.54C117.904 22.1867 117.624 21.1133 117.414 20.32C117.204 19.5267 117.099 19.13 117.099 19.13C117.052 18.92 117.029 18.7683 117.029 18.675C117.052 18.5583 117.18 18.5 117.414 18.5H118.639L122.874 34.53C123.107 35.4167 123.305 36.2683 123.469 37.085C123.655 37.8783 123.819 38.6367 123.959 39.36C124.122 40.0833 124.262 40.795 124.379 41.495C124.519 40.795 124.647 40.0833 124.764 39.36C124.904 38.6367 125.055 37.8783 125.219 37.085C125.405 36.2683 125.592 35.4167 125.779 34.53L129.664 19.13C129.71 18.92 129.757 18.7683 129.804 18.675C129.874 18.5583 129.99 18.5 130.154 18.5H131.449L125.184 43.245C125.044 43.2683 124.88 43.28 124.694 43.28C124.53 43.3033 124.309 43.315 124.029 43.315ZM133.72 43V18.92C133.72 18.92 133.743 18.85 133.79 18.71C133.837 18.57 133.965 18.5 134.175 18.5H142.54C142.54 18.92 142.528 19.235 142.505 19.445C142.505 19.655 142.482 19.795 142.435 19.865C142.388 19.935 142.318 19.97 142.225 19.97H135.295V41.53H142.54C142.54 41.9733 142.528 42.3 142.505 42.51C142.482 42.72 142.447 42.86 142.4 42.93C142.353 42.9767 142.272 43 142.155 43H133.72ZM134.21 30.33V28.86H141.77C141.77 29.4667 141.758 29.8633 141.735 30.05C141.712 30.2367 141.607 30.33 141.42 30.33H134.21ZM145.647 43V19.13C145.647 18.92 145.67 18.7683 145.717 18.675C145.764 18.5817 145.892 18.535 146.102 18.535C146.335 18.5117 146.72 18.5 147.257 18.5V41.495H154.537V42.58C154.537 42.7667 154.502 42.8833 154.432 42.93C154.362 42.9767 154.257 43 154.117 43H145.647Z" fill="black"/>
<path d="M160.733 43V19.025C160.733 19.025 160.745 18.99 160.768 18.92C160.815 18.8267 160.943 18.78 161.153 18.78H161.853C162.086 18.78 162.215 18.8267 162.238 18.92C162.285 18.99 162.308 19.025 162.308 19.025V42.58C162.308 42.72 162.285 42.825 162.238 42.895C162.191 42.9417 162.051 42.9767 161.818 43C161.608 43 161.246 43 160.733 43ZM155.413 20.005V18.92C155.413 18.64 155.565 18.5 155.868 18.5H167.768V19.585C167.768 19.725 167.733 19.83 167.663 19.9C167.593 19.97 167.476 20.005 167.313 20.005H155.413ZM170.051 43V19.34C170.051 19.06 170.075 18.8617 170.121 18.745C170.168 18.6283 170.308 18.5583 170.541 18.535C170.775 18.5117 171.148 18.5 171.661 18.5V42.58C171.661 42.72 171.626 42.825 171.556 42.895C171.51 42.9417 171.381 42.9767 171.171 43C170.961 43 170.588 43 170.051 43ZM181.884 38.17L179.854 31.695C179.854 31.625 179.772 31.3217 179.609 30.785C179.445 30.2483 179.235 29.5833 178.979 28.79C178.722 27.9967 178.465 27.1683 178.209 26.305C177.952 25.4183 177.695 24.59 177.439 23.82C177.205 23.05 177.007 22.42 176.844 21.93C176.704 21.44 176.634 21.195 176.634 21.195L177.229 18.5L181.219 31.415C181.265 31.5317 181.347 31.8233 181.464 32.29C181.604 32.7333 181.755 33.2233 181.919 33.76C182.082 34.2967 182.222 34.7633 182.339 35.16C182.455 35.5333 182.514 35.72 182.514 35.72C182.514 35.72 182.572 35.5333 182.689 35.16C182.805 34.7633 182.934 34.3083 183.074 33.795C183.214 33.2817 183.354 32.8033 183.494 32.36C183.634 31.9167 183.715 31.6367 183.739 31.52L187.659 18.92L188.254 21.37C188.254 21.37 188.184 21.615 188.044 22.105C187.904 22.595 187.717 23.2133 187.484 23.96C187.274 24.7067 187.029 25.5117 186.749 26.375C186.492 27.2383 186.247 28.0667 186.014 28.86C185.78 29.63 185.582 30.2833 185.419 30.82C185.255 31.3333 185.162 31.625 185.139 31.695L183.074 37.855C183.004 38.065 182.875 38.17 182.689 38.17H181.884ZM175.794 43V18.92C175.794 18.7567 175.829 18.6517 175.899 18.605C175.992 18.535 176.097 18.5 176.214 18.5H177.229L177.369 20.46L177.089 22.105C177.089 22.105 177.089 22.315 177.089 22.735C177.112 23.1317 177.124 23.6683 177.124 24.345C177.147 25.0217 177.17 25.7567 177.194 26.55C177.217 27.3433 177.24 28.1133 177.264 28.86C177.287 29.6067 177.299 30.2717 177.299 30.855C177.322 31.415 177.334 31.8 177.334 32.01L177.369 42.58C177.369 42.72 177.334 42.825 177.264 42.895C177.217 42.9417 177.077 42.9767 176.844 43C176.634 43 176.284 43 175.794 43ZM187.624 43L187.694 32.29C187.694 32.0567 187.694 31.6483 187.694 31.065C187.717 30.4583 187.74 29.7583 187.764 28.965C187.787 28.1483 187.799 27.32 187.799 26.48C187.822 25.64 187.845 24.8583 187.869 24.135C187.892 23.3883 187.904 22.7933 187.904 22.35C187.927 21.9067 187.939 21.685 187.939 21.685L187.659 21.16V18.92C187.682 18.8733 187.717 18.7917 187.764 18.675C187.81 18.5583 187.915 18.5 188.079 18.5C188.475 18.5 188.755 18.5 188.919 18.5C189.082 18.5 189.175 18.5 189.199 18.5C189.222 18.5 189.234 18.5 189.234 18.5V42.58C189.234 42.72 189.21 42.825 189.164 42.895C189.117 42.9417 188.977 42.9767 188.744 43C188.534 43 188.16 43 187.624 43ZM193.09 43V18.92C193.09 18.92 193.113 18.85 193.16 18.71C193.207 18.57 193.335 18.5 193.545 18.5H201.91C201.91 18.92 201.898 19.235 201.875 19.445C201.875 19.655 201.852 19.795 201.805 19.865C201.758 19.935 201.688 19.97 201.595 19.97H194.665V41.53H201.91C201.91 41.9733 201.898 42.3 201.875 42.51C201.852 42.72 201.817 42.86 201.77 42.93C201.723 42.9767 201.642 43 201.525 43H193.09ZM193.58 30.33V28.86H201.14C201.14 29.4667 201.128 29.8633 201.105 30.05C201.082 30.2367 200.977 30.33 200.79 30.33H193.58Z" fill="#2032D3"/>
<circle cx="33" cy="33" r="32.5" stroke="black"/>
<path d="M60.3001 50.7C60.3001 50.7 60.0037 49.6802 60.0001 48.6C59.9938 46.7073 56.9521 45.9759 56.7001 44.1C56.4751 42.4254 59.9927 42.0823 59.4001 40.5C58.9002 39.1653 59.5256 38.1268 58.8001 36.9C56.9274 33.7335 52.8427 39.9365 49.5001 38.4C47.9872 37.7046 46.3123 37.3614 46.2001 35.7C46.1598 35.104 46.6275 34.7837 46.5001 34.2C46.3049 33.3061 45.2009 33.4659 44.7001 32.7C43.6026 31.0216 44.5322 29.4526 45.3001 27.6C46.3785 24.998 49.908 25.2734 50.4001 22.5C50.7132 20.7354 48.7831 19.6425 49.5001 18C50.2156 16.3611 52.0823 16.809 53.4001 15.6C55.1482 13.9963 56.7001 10.5 56.7001 10.5M35.1001 3.00002C35.3516 4.38323 35.784 5.37165 35.1001 6.60002C34.0493 8.48752 29.9272 5.65171 29.7001 7.80002C29.6105 8.64821 29.8885 9.15298 30.3001 9.90002C31.4137 11.9213 36.3612 10.089 35.7001 12.3C35.438 13.1767 34.912 13.5251 34.2001 14.1C32.3569 15.5887 30.427 14.1907 28.2001 15C26.5744 15.5909 25.6694 16.0429 24.3001 17.1C22.5902 18.4202 20.7001 21.3 20.7001 21.3C20.7001 21.3 18.0369 24.0742 15.9001 25.2C13.5365 26.4454 9.51439 24.337 9.30012 27C9.21098 28.1079 9.51473 28.8251 10.2001 29.7C11.5898 31.4741 14.1292 29.2064 15.9001 30.6C17.1005 31.5447 16.6487 33.188 18.0001 33.9C19.9668 34.9362 21.448 31.0367 23.4001 32.1C24.3487 32.6167 24.257 33.6735 25.2001 34.2C26.53 34.9424 27.7652 33.4668 29.1001 34.2C30.5267 34.9836 31.2001 37.8 31.2001 37.8C31.2001 37.8 33.2908 40.1027 35.1001 40.5C36.9629 40.9091 38.0689 39.067 39.9001 39.6C41.1169 39.9542 41.8619 40.37 42.6001 41.4C43.5653 42.7467 43.3896 43.954 43.2001 45.6C43.0135 47.2211 42.8091 48.3029 41.7001 49.5C40.5602 50.7306 39.0637 50.1968 37.8001 51.3C36.7228 52.2406 36.7996 53.3855 35.7001 54.3C34.9739 54.904 34.0724 54.682 33.6001 55.5C33.1315 56.3117 33.8379 56.9934 33.6001 57.9C33.2195 59.3513 32.5016 60.1535 31.2001 60.9C29.9638 61.6092 28.8828 60.8785 27.6001 61.5C26.1091 62.2225 25.8986 63.736 24.3001 63.3C23.1698 62.9918 23.3052 63.1571 22.8001 62.1C21.3137 58.9892 25.1529 56.7406 24.3001 53.4C23.2347 49.226 16.3232 49.9042 16.5001 45.6C16.5716 43.8598 18.0457 43.1411 18.0001 41.4C17.9534 39.6161 17.596 38.3117 16.2001 37.2C14.8879 36.1551 13.3487 37.2976 12.0001 36.3C10.6094 35.2713 11.3501 33.3432 9.9001 32.4C8.42369 31.4397 7.07901 32.6323 5.4001 32.1C3.01005 31.3423 0.600098 28.5 0.600098 28.5M35.1001 3.00002C34.9013 1.90649 34.2001 0.300018 34.2001 0.300018L35.1001 3.00002Z" stroke="black"/>
</svg>
