<svg width="132" height="68" viewBox="0 0 132 68" fill="none" xmlns="http://www.w3.org/2000/svg">
<path d="M65.7753 22.235L65.5876 22.1491L65.394 22.2206L42.0667 30.8301L1.61955 36.8331C1.05664 36.9166 0.975694 37.6954 1.50938 37.8929L31.5606 49.0158L55.7443 67.0901L55.9851 67.2701L56.2571 67.1418L72.6344 59.4112L93.3336 56.8329L93.4019 56.8244L93.4653 56.7978L109.859 49.9194L130.344 46.7201C130.931 46.6284 130.975 45.7996 130.401 45.6455L97.7708 36.8843L65.7753 22.235Z" stroke="black"/>
<ellipse cx="81" cy="43.1896" rx="5.5" ry="0.5" fill="url(#paint0_radial_76_14)"/>
<path d="M25.181 46.3047C24.9683 46.4809 24.9388 46.7961 25.115 47.0087C25.2912 47.2213 25.6064 47.2508 25.819 47.0746L25.181 46.3047ZM52.7277 40.023L52.6835 40.521L52.9047 40.5407L53.0676 40.3897L52.7277 40.023ZM62.1337 31.305L61.9705 30.8324L61.871 30.8668L61.7938 30.9383L62.1337 31.305ZM35.401 38.4845L35.4452 37.9865L35.2403 37.9683L35.0819 38.0995L35.401 38.4845ZM53.0676 40.3897L62.4736 31.6717L61.7938 30.9383L52.3878 39.6563L53.0676 40.3897ZM62.2969 31.7776L75.6632 27.1623L75.3368 26.217L61.9705 30.8324L62.2969 31.7776ZM25.819 47.0746L35.72 38.8695L35.0819 38.0995L25.181 46.3047L25.819 47.0746ZM35.3568 38.9825L52.6835 40.521L52.7719 39.5249L35.4452 37.9865L35.3568 38.9825Z" fill="black"/>
<path d="M94.6666 18.1896C94.6666 28.6896 80.9999 39.1896 80.9999 39.1896C80.9999 39.1896 67.3333 28.6896 67.3333 18.1896C67.3333 14.4766 68.7731 10.9157 71.3361 8.29014C73.8991 5.66463 77.3753 4.18964 80.9999 4.18964C84.6245 4.18964 88.1007 5.66463 90.6637 8.29014C93.2267 10.9157 94.6666 14.4766 94.6666 18.1896Z" stroke="#2032D3" stroke-linecap="round" stroke-linejoin="round"/>
<path d="M80.9999 23.4396C83.8304 23.4396 86.1249 21.0891 86.1249 18.1896C86.1249 15.2901 83.8304 12.9396 80.9999 12.9396C78.1695 12.9396 75.8749 15.2901 75.8749 18.1896C75.8749 21.0891 78.1695 23.4396 80.9999 23.4396Z" stroke="#2032D3" stroke-linecap="round" stroke-linejoin="round"/>
<path d="M39.6678 50.3159C39.4614 50.4994 39.4428 50.8154 39.6263 51.0218C39.8098 51.2282 40.1258 51.2468 40.3322 51.0633L39.6678 50.3159ZM44.5 46.6896L44.8322 47.0633L45.0625 46.8586L44.9831 46.5608L44.5 46.6896ZM58 42.6896L57.7948 42.2337L57.2566 42.4759L57.584 42.967L58 42.6896ZM69 54.1896L69.3468 54.5498L69.7391 54.172L69.3293 53.8133L69 54.1896ZM61 47.1896L60.584 47.467L60.6208 47.5222L60.6707 47.5659L61 47.1896ZM68 38.1896L68.2052 38.6456L68.788 38.3833L68.3932 37.8807L68 38.1896ZM42.0169 39.3185L44.0169 46.8185L44.9831 46.5608L42.9831 39.0608L42.0169 39.3185ZM44.1678 46.3159L39.6678 50.3159L40.3322 51.0633L44.8322 47.0633L44.1678 46.3159ZM68.6532 53.8295L55.1532 66.8295L55.8468 67.5498L69.3468 54.5498L68.6532 53.8295ZM57.584 42.967L60.584 47.467L61.416 46.9123L58.416 42.4123L57.584 42.967ZM60.6707 47.5659L68.6707 54.5659L69.3293 53.8133L61.3293 46.8133L60.6707 47.5659ZM62.1068 31.4985L67.6068 38.4985L68.3932 37.8807L62.8932 30.8807L62.1068 31.4985ZM67.7948 37.7337L57.7948 42.2337L58.2052 43.1456L68.2052 38.6456L67.7948 37.7337Z" fill="black"/>
<path d="M89 57.6896V57.6896C87.9835 55.4026 89.3848 52.7688 91.8495 52.3338L92.3491 52.2457C94.2147 51.9165 95.6366 50.3916 95.8349 48.5077L96.0298 46.6568C96.2625 44.4456 98.5782 43.0988 100.615 43.9901V43.9901C102.81 44.9503 105.375 44.0656 106.51 41.9562L108 39.1896" stroke="black"/>
<defs>
<radialGradient id="paint0_radial_76_14" cx="0" cy="0" r="1" gradientUnits="userSpaceOnUse" gradientTransform="translate(81 43.1896) rotate(90) scale(0.5 5.5)">
<stop offset="0.645833" stop-color="#2032D3" stop-opacity="0.8"/>
<stop offset="1" stop-color="#2032D3" stop-opacity="0"/>
</radialGradient>
</defs>
</svg>
