<svg width="145" height="68" viewBox="0 0 145 68" fill="none" xmlns="http://www.w3.org/2000/svg">
<path d="M65.8425 66.6038L66.0966 66.7756L66.3649 66.627L98.7848 48.6714L140.742 42.6168L142.346 42.3853L140.89 41.6728L108.356 25.7472L81.8267 10.7197L81.6665 10.6289L81.4857 10.6637L60.5282 14.6987L60.4576 14.7122L60.3938 14.7452L43.9334 23.2247L23.618 29.458L1.46932 33.2383C0.883287 33.3383 0.85067 34.1679 1.42706 34.3136L36.6489 43.2177L48.7735 55.0475L48.8055 55.0787L48.8425 55.1038L65.8425 66.6038Z" stroke="black"/>
<path d="M24.1227 40.1896L23.1731 37.341C22.6965 35.9112 23.9127 34.488 25.3993 34.7357L40.1227 37.1896L42.3923 31.2887C42.5327 30.9237 42.8729 30.674 43.2632 30.6496L50.6227 30.1896L56.1227 27.6896L68.1227 25.1896L56.6227 16.6896" stroke="black"/>
<path d="M38.1491 35.0291C38.0605 35.2907 38.2008 35.5745 38.4624 35.6631C38.7239 35.7516 39.0077 35.6113 39.0963 35.3498L38.1491 35.0291ZM39.0963 35.3498C46.8197 12.5351 60.1792 1.57202 73.798 1.69059C87.4397 1.80936 101.681 13.0425 111.162 35.385L112.083 34.9943C102.533 12.4899 88.0295 0.81446 73.8067 0.690629C59.5609 0.566597 45.936 12.0269 38.1491 35.0291L39.0963 35.3498Z" fill="#2032D3"/>
<path d="M111.623 35.1896V29.2167" stroke="#2032D3" stroke-linecap="round"/>
<path d="M107.374 31.1246C107.159 30.9513 106.844 30.9852 106.671 31.2003C106.498 31.4153 106.531 31.7301 106.746 31.9033L107.374 31.1246ZM111.936 34.8003L107.374 31.1246L106.746 31.9033L111.309 35.579L111.936 34.8003Z" fill="#2032D3"/>
<path d="M49.6227 55.1896L54.1227 41.6896L76.6227 37.6896" stroke="black" stroke-linecap="round"/>
<path d="M62.6227 40.1896L72.6227 47.1896L89.6227 48.1896" stroke="black" stroke-linecap="round"/>
<path d="M96.1227 19.1896L89.6227 29.1896L96.6227 34.1896L104.623 47.6896" stroke="black" stroke-linecap="round"/>
<path d="M80.1227 24.1896L79.6307 24.2791L79.6503 24.3867L79.7131 24.4764L80.1227 24.1896ZM79.6146 18.6002C79.5652 18.3285 79.3049 18.1483 79.0332 18.1977C78.7615 18.2471 78.5813 18.5074 78.6307 18.7791L79.6146 18.6002ZM83.6227 29.1896L83.2131 29.4764L83.3624 29.6896H83.6227V29.1896ZM80.6146 24.1002L79.6146 18.6002L78.6307 18.7791L79.6307 24.2791L80.6146 24.1002ZM89.6227 28.6896H83.6227V29.6896H89.6227V28.6896ZM84.0323 28.9029L80.5323 23.9029L79.7131 24.4764L83.2131 29.4764L84.0323 28.9029Z" fill="black"/>
</svg>
