<svg width="13" height="12" viewBox="0 0 13 12" fill="none" xmlns="http://www.w3.org/2000/svg">
<path fill-rule="evenodd" clip-rule="evenodd" d="M8.45 4.94093C8.93997 4.94084 9.41684 4.76902 9.80973 4.45101C10.2026 4.13301 10.4906 3.68578 10.6307 3.17581H12.35C12.5224 3.17581 12.6877 3.10142 12.8096 2.96902C12.9315 2.83661 13 2.65702 13 2.46977C13 2.28251 12.9315 2.10292 12.8096 1.97051C12.6877 1.83811 12.5224 1.76372 12.35 1.76372H10.6307C10.4903 1.25401 10.2023 0.807094 9.80942 0.489354C9.41655 0.171615 8.93981 0 8.45 0C7.96019 0 7.48345 0.171615 7.09058 0.489354C6.69771 0.807094 6.40967 1.25401 6.26925 1.76372H0.65C0.477609 1.76372 0.312279 1.83811 0.190381 1.97051C0.0684819 2.10292 0 2.28251 0 2.46977C0 2.65702 0.0684819 2.83661 0.190381 2.96902C0.312279 3.10142 0.477609 3.17581 0.65 3.17581H6.26925C6.40944 3.68578 6.69738 4.13301 7.09027 4.45101C7.48316 4.76902 7.96003 4.94084 8.45 4.94093ZM0.65 8.82419C0.477609 8.82419 0.312279 8.89857 0.190381 9.03098C0.0684819 9.16339 0 9.34298 0 9.53023C0 9.71749 0.0684819 9.89708 0.190381 10.0295C0.312279 10.1619 0.477609 10.2363 0.65 10.2363H2.04425C2.18467 10.746 2.47271 11.1929 2.86558 11.5106C3.25845 11.8284 3.73519 12 4.225 12C4.71481 12 5.19155 11.8284 5.58442 11.5106C5.97729 11.1929 6.26533 10.746 6.40575 10.2363H12.35C12.5224 10.2363 12.6877 10.1619 12.8096 10.0295C12.9315 9.89708 13 9.71749 13 9.53023C13 9.34298 12.9315 9.16339 12.8096 9.03098C12.6877 8.89857 12.5224 8.82419 12.35 8.82419H6.40575C6.26533 8.31448 5.97729 7.86756 5.58442 7.54982C5.19155 7.23208 4.71481 7.06047 4.225 7.06047C3.73519 7.06047 3.25845 7.23208 2.86558 7.54982C2.47271 7.86756 2.18467 8.31448 2.04425 8.82419H0.65Z" fill="#2032D3"/>
</svg>
