<svg width="28" height="28" viewBox="0 0 28 28" fill="none" xmlns="http://www.w3.org/2000/svg">
<path d="M24 10.0308V4.16666C24 3.48152 23.7366 2.82444 23.2678 2.33997C22.7989 1.8555 22.163 1.58333 21.5 1.58333C20.837 1.58333 20.2011 1.8555 19.7322 2.33997C19.2634 2.82444 19 3.48152 19 4.16666V8.04166" stroke="black" stroke-width="2" stroke-linecap="round" stroke-linejoin="round"/>
<path d="M21.5 26.125H11.5C10.1739 26.125 8.90215 25.5807 7.96447 24.6117C7.02678 23.6428 6.5 22.3286 6.5 20.9583C6.5 18.5603 7.42187 16.2606 9.06282 14.5649C10.7038 12.8693 12.9294 11.9167 15.25 11.9167H15.5L11 7.26667C10.7702 7.0292 10.5879 6.74728 10.4635 6.437C10.3391 6.12673 10.2751 5.79418 10.2751 5.45834C10.2751 4.78008 10.5359 4.12961 11 3.65001C11.4641 3.17041 12.0936 2.90097 12.75 2.90097C13.075 2.90097 13.3968 2.96712 13.6971 3.09564C13.9974 3.22416 14.2702 3.41253 14.5 3.65001L18.75 8.04167H19C23.125 8.04167 26.5 11.5292 26.5 15.7917V17.0833C26.5 17.7685 26.2366 18.4256 25.7678 18.91C25.2989 19.3945 24.663 19.6667 24 19.6667H22.75C20.625 19.6667 19 21.3458 19 23.5417" stroke="black" stroke-width="2" stroke-linecap="round" stroke-linejoin="round"/>
<path d="M8.51249 15.1846C8.161 14.5418 7.6391 14.0161 7.00823 13.6695C6.37736 13.3228 5.66379 13.1696 4.95151 13.2279C4.23923 13.2862 3.55789 13.5536 2.9877 13.9986C2.41752 14.4435 1.98221 15.0475 1.73304 15.7395C1.48386 16.4315 1.43119 17.1826 1.58122 17.9045C1.73124 18.6263 2.07773 19.2889 2.57988 19.8141C3.08203 20.3394 3.71895 20.7055 4.41565 20.8693C5.11236 21.0331 5.83985 20.9878 6.51249 20.7388" stroke="black" stroke-width="2" stroke-linecap="round" stroke-linejoin="round"/>
<path d="M15.25 19.6667C15.9743 19.6657 16.6834 19.8815 17.2916 20.288C17.8998 20.6945 18.381 21.2743 18.6772 21.9574C18.9733 22.6404 19.0717 23.3975 18.9604 24.1371C18.8491 24.8767 18.5329 25.5671 18.05 26.125" stroke="black" stroke-width="2" stroke-linecap="round" stroke-linejoin="round"/>
<path d="M21.5 14.5H21.5125" stroke="black" stroke-width="2" stroke-linecap="round" stroke-linejoin="round"/>
</svg>
