<svg width="34" height="26" viewBox="0 0 34 26" fill="none" xmlns="http://www.w3.org/2000/svg">
<path d="M31.62 23.88C32.1832 23.88 32.64 23.4232 32.64 22.86V3.14C32.64 2.57681 32.1832 2.12 31.62 2.12H2.38C1.81681 2.12 1.36 2.57681 1.36 3.14V22.86C1.36 23.4232 1.81681 23.88 2.38 23.88H31.62ZM31.62 25.24H2.38C1.06572 25.24 0 24.1743 0 22.86V3.14C0 1.82572 1.06572 0.759998 2.38 0.759998H31.62C32.9343 0.759998 34 1.82572 34 3.14V22.86C34 24.1743 32.9343 25.24 31.62 25.24Z" fill="black"/>
<path d="M8.45365 2.00495C8.45365 3.79317 7.00404 5.24279 5.21582 5.24279C3.4276 5.24279 1.97798 3.79317 1.97798 2.00495C1.97798 1.62939 1.67354 1.32495 1.29798 1.32495C0.92242 1.32495 0.617981 1.62939 0.617981 2.00495C0.617981 4.54426 2.67647 6.60279 5.21582 6.60279C7.75516 6.60279 9.81365 4.54429 9.81365 2.00495C9.81365 1.62939 9.50921 1.32495 9.13365 1.32495C8.75809 1.32495 8.45365 1.62939 8.45365 2.00495Z" fill="black"/>
<path d="M16.2895 2.00495C16.2895 3.79317 14.8399 5.24279 13.0516 5.24279C11.2634 5.24279 9.8138 3.79317 9.8138 2.00495C9.8138 1.62939 9.50936 1.32495 9.1338 1.32495C8.75824 1.32495 8.4538 1.62939 8.4538 2.00495C8.4538 4.54426 10.5123 6.60279 13.0516 6.60279C15.591 6.60279 17.6495 4.54429 17.6495 2.00495C17.6495 1.62939 17.345 1.32495 16.9695 1.32495C16.5939 1.32495 16.2895 1.62939 16.2895 2.00495Z" fill="black"/>
<path d="M24.1253 2.00495C24.1253 3.79317 22.6756 5.24279 20.8874 5.24279C19.0992 5.24279 17.6496 3.79317 17.6496 2.00495C17.6496 1.62939 17.3451 1.32495 16.9696 1.32495C16.594 1.32495 16.2896 1.62939 16.2896 2.00495C16.2896 4.54426 18.3481 6.60279 20.8874 6.60279C23.4268 6.60279 25.4853 4.54429 25.4853 2.00495C25.4853 1.62939 25.1808 1.32495 24.8053 1.32495C24.4297 1.32495 24.1253 1.62939 24.1253 2.00495Z" fill="black"/>
<path d="M31.9611 2.00495C31.9611 3.79317 30.5114 5.24279 28.7232 5.24279C26.935 5.24279 25.4854 3.79317 25.4854 2.00495C25.4854 1.62939 25.1809 1.32495 24.8054 1.32495C24.4298 1.32495 24.1254 1.62939 24.1254 2.00495C24.1254 4.54426 26.1839 6.60279 28.7232 6.60279C31.2626 6.60279 33.3211 4.54429 33.3211 2.00495C33.3211 1.62939 33.0166 1.32495 32.6411 1.32495C32.2655 1.32495 31.9611 1.62939 31.9611 2.00495ZM8.45364 2.43261V24.5234C8.45364 24.899 8.75808 25.2034 9.13364 25.2034C9.5092 25.2034 9.81364 24.899 9.81364 24.5234V2.43261C9.81364 2.05705 9.5092 1.75261 9.13364 1.75261C8.75808 1.75261 8.45364 2.05705 8.45364 2.43261Z" fill="black"/>
<path d="M24.1253 2.43261V24.5234C24.1253 24.899 24.4297 25.2034 24.8053 25.2034C25.1808 25.2034 25.4853 24.899 25.4853 24.5234V2.43261C25.4853 2.05705 25.1808 1.75261 24.8053 1.75261C24.4297 1.75261 24.1253 2.05705 24.1253 2.43261ZM18.6177 13.4012C18.6177 12.5079 17.8933 11.7835 17 11.7835C16.1066 11.7835 15.3822 12.5079 15.3822 13.4012C15.3822 14.2946 16.1066 15.019 17 15.019C17.8933 15.019 18.6177 14.2946 18.6177 13.4012ZM19.9777 13.4012C19.9777 15.0456 18.6444 16.379 17 16.379C15.3555 16.379 14.0222 15.0457 14.0222 13.4012C14.0222 11.7568 15.3555 10.4235 17 10.4235C18.6444 10.4235 19.9777 11.7568 19.9777 13.4012Z" fill="black"/>
<path d="M19.1992 18.5801C19.1992 17.3654 18.2146 16.3806 17.0001 16.3806C15.7855 16.3806 14.8006 17.3654 14.8006 18.5801V23.88H19.1992V18.5801ZM19.3995 25.24H14.6004C13.9599 25.24 13.4406 24.7207 13.4406 24.0802V18.5801C13.4406 16.6144 15.0343 15.0206 17.0001 15.0206C18.9658 15.0206 20.5592 16.6143 20.5592 18.5801V24.0802C20.5592 24.7207 20.0402 25.24 19.3994 25.24H19.3995Z" fill="black"/>
</svg>
