<svg width="30" height="30" viewBox="0 0 30 30" fill="none" xmlns="http://www.w3.org/2000/svg">
<path d="M16.5762 2.59612C16.3925 2.48111 16.1625 2.47238 15.9687 2.56864L14.9988 3.0536L14.0288 2.56864C13.8363 2.47238 13.605 2.4824 13.4213 2.59612C13.2376 2.70985 13.1251 2.91111 13.1251 3.12608V5.001C13.1251 5.34599 13.4051 5.626 13.7501 5.626C14.095 5.626 14.375 5.34599 14.375 5.001V4.13854L14.7213 4.31103C14.8963 4.39851 15.1037 4.39851 15.28 4.31103L15.625 4.13854V5.001C15.625 5.34599 15.905 5.626 16.25 5.626C16.595 5.626 16.875 5.34599 16.875 5.001V3.12608C16.875 2.91111 16.7625 2.70991 16.5762 2.59612Z" fill="black"/>
<path d="M28.7494 27.5001H28.1244V26.8751C28.1244 26.5302 27.8444 26.2502 27.4994 26.2502H26.8744V25.6252C26.8744 25.2802 26.5944 25.0002 26.2495 25.0002H25.6032L25.0195 7.50086H26.2495C26.5344 7.50086 26.7819 7.30839 26.8532 7.03213C26.9244 6.75587 26.8007 6.46591 26.552 6.32839L15.3024 0.0786285C15.1149 -0.0263672 14.8837 -0.0263672 14.6962 0.0786285L3.44664 6.32839C3.19792 6.46837 3.07417 6.75587 3.14542 7.03213C3.21666 7.30839 3.46539 7.50086 3.75037 7.50086H4.98032L4.39669 25.0002H3.75049C3.4055 25.0002 3.1255 25.2802 3.1255 25.6252V26.2502H2.5005C2.15552 26.2502 1.87551 26.5302 1.87551 26.8752V27.5002H1.25057C0.905588 27.5002 0.62558 27.7802 0.62558 28.1252V29.3751C0.62558 29.7201 0.905588 30.0001 1.25057 30.0001H28.7494C29.0944 30.0001 29.3744 29.7201 29.3744 29.3751V28.1252C29.3744 27.7801 29.0944 27.5001 28.7494 27.5001ZM15.0013 1.34244L23.8384 6.25099H6.16287L15.0013 1.34244ZM24.3534 25.0002H23.1459L23.7309 7.50092H23.7709L24.3534 25.0002ZM15 11.2508C12.5876 11.2508 10.6252 13.2132 10.6252 15.6256V25.0002H8.10406L7.52032 7.50092H22.4797L21.8959 25.0002H19.3748V15.6256C19.3748 13.2132 17.4124 11.2508 15 11.2508ZM18.1249 15.6256V25.0002H11.8751V15.6256C11.8751 13.9032 13.2776 12.5008 15 12.5008C16.7224 12.5008 18.1249 13.9032 18.1249 15.6256ZM6.2316 7.50092H6.27162L6.85407 25.0002H5.64662L6.2316 7.50092ZM2.5005 28.7501C2.84549 28.7501 3.1255 28.4701 3.1255 28.1251V27.5001H3.75049C4.09548 27.5001 4.37548 27.2201 4.37548 26.8751V26.2501H25.6246V26.8751C25.6246 27.2201 25.9046 27.5001 26.2496 27.5001H26.8746V28.1251C26.8746 28.4701 27.1546 28.7501 27.4996 28.7501H2.5005Z" fill="black"/>
</svg>
