<svg width="21" height="31" viewBox="0 0 21 31" fill="none" xmlns="http://www.w3.org/2000/svg">
<path d="M10.5 0C9.04907 0 7.875 1.15544 7.875 2.58333C7.875 4.01123 9.04907 5.16667 10.5 5.16667C11.9509 5.16667 13.125 4.01123 13.125 2.58333C13.125 1.15544 11.9509 0 10.5 0ZM10.5 5.16667H5.25V7.75H7.17773L6.60352 20.6667H2.625V28.4167H0V31H21V28.4167H18.375V20.6667H14.3965L13.8223 7.75H15.75V5.16667H10.5ZM9.80273 7.75H11.1973L11.7715 20.6667H9.22852L9.80273 7.75ZM5.25 23.25H15.75V28.4167H5.25V23.25Z" fill="black"/>
</svg>
