<svg width="31" height="30" viewBox="0 0 31 30" fill="none" xmlns="http://www.w3.org/2000/svg">
<path d="M22.5088 6.9194L15.9088 0.34143C15.46 -0.111181 14.7296 -0.114182 14.2771 0.334736L14.2704 0.34143L7.69344 6.9194H1.25498C0.617828 6.9194 0.101135 7.43618 0.101135 8.07343V28.846C0.101135 29.4832 0.617828 30 1.25498 30H28.9473C29.5844 30 30.1011 29.4832 30.1011 28.846V8.07343C30.1011 7.43618 29.5844 6.9194 28.9473 6.9194H22.5088ZM15.1011 2.78797L19.2319 6.9194H10.9704L15.1011 2.78797ZM27.7934 27.6919H2.40883V9.22746H27.7934V27.6919ZM9.3319 16.1516C8.05737 16.1516 7.02421 15.1183 7.02421 13.8436C7.02421 12.5688 8.05737 11.5355 9.3319 11.5355C10.6064 11.5355 11.6396 12.5688 11.6396 13.8436C11.6396 15.1183 10.6064 16.1516 9.3319 16.1516ZM25.4858 25.3839H8.17806L11.6396 18.4597L14.5242 24.2298L19.7165 13.8436L25.4858 25.3839Z" fill="black"/>
</svg>
