<svg width="26" height="30" viewBox="0 0 26 30" fill="none" xmlns="http://www.w3.org/2000/svg">
<path d="M15.7074 23.7907H3.16831C2.39927 23.7907 1.77536 24.2871 1.77536 24.8998V24.9321C1.77536 25.5457 2.39903 26.0421 3.16831 26.0421H15.7074C16.4766 26.0421 17.1006 25.5458 17.1006 24.9321V24.8998C17.1006 24.2871 16.4771 23.7907 15.7074 23.7907Z" fill="black"/>
<path d="M1.35332 22.2967C1.3944 22.3101 1.43061 22.3281 1.46922 22.3537C1.5366 22.3982 1.61184 22.4692 1.69879 22.5684C1.76371 22.6417 1.83467 22.7297 1.91735 22.824C2.04156 22.9651 2.19379 23.1254 2.40789 23.2557C2.51453 23.3204 2.63676 23.3757 2.77018 23.4134C2.90377 23.4511 3.04908 23.4709 3.20072 23.4709C3.37656 23.4714 3.54344 23.4444 3.69461 23.3941C3.82692 23.35 3.94551 23.2894 4.04887 23.2206C4.22986 23.0998 4.36399 22.9597 4.47561 22.8339C4.55893 22.7386 4.63035 22.6506 4.69639 22.576C4.79471 22.4633 4.87738 22.3856 4.95197 22.3411C4.99018 22.3186 5.02568 22.302 5.06834 22.2899C5.11076 22.2786 5.16022 22.2701 5.22713 22.2701C5.30459 22.2701 5.35873 22.2809 5.4059 22.2966C5.4468 22.3101 5.48318 22.328 5.52203 22.3536C5.58942 22.3981 5.66465 22.4691 5.75108 22.5684C5.81623 22.6416 5.88719 22.7296 5.9701 22.824C6.09432 22.965 6.24637 23.1254 6.46065 23.2557C6.56734 23.3208 6.6891 23.3756 6.82316 23.4133C6.95699 23.4511 7.10189 23.4708 7.25348 23.4708C7.42938 23.4713 7.59666 23.4443 7.74719 23.394C7.87973 23.3499 7.99832 23.2894 8.10162 23.2206C8.28285 23.0998 8.4165 22.9596 8.52795 22.8338C8.61221 22.7386 8.68334 22.6505 8.74914 22.576C8.84734 22.4632 8.93043 22.3855 9.0052 22.341C9.0427 22.3186 9.07861 22.3019 9.12133 22.2898C9.16358 22.2786 9.21344 22.27 9.27988 22.27C9.3574 22.27 9.41172 22.2808 9.45848 22.2966C9.49961 22.31 9.536 22.328 9.57479 22.3536C9.64217 22.398 9.7174 22.4691 9.80389 22.5683C9.86945 22.6416 9.94023 22.7296 10.0229 22.8239C10.1471 22.965 10.2991 23.1253 10.5136 23.2556C10.6203 23.3208 10.7418 23.3756 10.8759 23.4133C11.01 23.451 11.1546 23.4708 11.3063 23.4708C11.4824 23.4712 11.6492 23.4443 11.8004 23.394C11.9325 23.3499 12.0513 23.2893 12.1546 23.2205C12.3357 23.0997 12.47 22.9595 12.5812 22.8337C12.6647 22.7385 12.7366 22.6505 12.8017 22.5759C12.9 22.4632 12.9832 22.3854 13.0585 22.341C13.0955 22.3185 13.1319 22.3019 13.1741 22.2898C13.2163 22.2785 13.2662 22.2699 13.3329 22.2699C13.4104 22.2699 13.4645 22.2808 13.5117 22.2965C13.5531 22.31 13.5892 22.3279 13.6278 22.3535C13.6954 22.398 13.7704 22.469 13.8576 22.5683C13.9227 22.6415 13.9935 22.7299 14.0766 22.8238C14.2001 22.9649 14.3528 23.1252 14.5669 23.2556C14.6736 23.3207 14.7955 23.3755 14.9296 23.4132C15.0633 23.451 15.2083 23.4712 15.3597 23.4712C15.5358 23.4712 15.7032 23.4442 15.8536 23.3939C15.9857 23.3498 16.1048 23.2892 16.208 23.2205C16.3893 23.0996 16.5234 22.9595 16.6348 22.8337C16.7179 22.7385 16.7898 22.6504 16.8554 22.5759C16.9537 22.4631 17.0368 22.3854 17.1116 22.3409C17.1491 22.3185 17.1851 22.3018 17.2277 22.2902C17.2704 22.2784 17.3198 22.2699 17.3867 22.2699C17.6626 22.2699 17.8867 22.0458 17.8867 21.7695C17.8867 21.4933 17.6626 21.2691 17.3867 21.2691C17.2104 21.2691 17.0436 21.2961 16.8924 21.3463C16.7601 21.3899 16.6411 21.451 16.5382 21.5193C16.3572 21.6401 16.2231 21.7798 16.1114 21.9065C16.0281 22.0013 15.9562 22.0898 15.8907 22.1639C15.7927 22.2766 15.7092 22.3543 15.6346 22.3993C15.5964 22.4217 15.5609 22.4379 15.5187 22.45C15.4761 22.4621 15.4261 22.4698 15.3597 22.4698C15.2824 22.4698 15.2279 22.4594 15.1807 22.4442C15.1398 22.4307 15.1037 22.4119 15.0646 22.3863C14.9972 22.3423 14.9217 22.2704 14.8353 22.1716C14.7701 22.0983 14.6989 22.0108 14.6167 21.9155C14.4923 21.7754 14.3404 21.6145 14.1259 21.4847C14.0188 21.4196 13.8973 21.3648 13.7632 21.3262C13.6291 21.2889 13.4845 21.2691 13.3329 21.2691C13.1567 21.2691 12.9899 21.2956 12.8387 21.3463C12.7066 21.3899 12.5876 21.451 12.4845 21.5193C12.3035 21.6401 12.1694 21.7798 12.058 21.9065C11.974 22.0013 11.9025 22.0898 11.837 22.1639C11.7386 22.2766 11.6559 22.3543 11.5807 22.3993C11.5429 22.4217 11.5072 22.4379 11.465 22.45C11.4228 22.4621 11.3729 22.4698 11.3062 22.4698C11.2287 22.4698 11.1742 22.4594 11.1275 22.4442C11.0864 22.4307 11.05 22.4119 11.0111 22.3863C10.9439 22.3423 10.8687 22.2704 10.782 22.1716C10.7168 22.0983 10.6461 22.0108 10.5634 21.9165C10.439 21.7754 10.2872 21.6146 10.0727 21.4847C9.96555 21.4196 9.84432 21.3648 9.70996 21.3262C9.57637 21.2889 9.431 21.2687 9.27983 21.2691C9.10398 21.2686 8.93664 21.2956 8.7857 21.3463C8.65363 21.3899 8.53457 21.4506 8.43127 21.5193C8.25022 21.6401 8.11615 21.7798 8.00471 21.9065C7.92115 22.0013 7.84996 22.0898 7.78416 22.1639C7.68602 22.2766 7.60264 22.3543 7.52787 22.3993C7.49037 22.4217 7.45445 22.4379 7.41221 22.45C7.36908 22.4617 7.31969 22.4698 7.25342 22.4698C7.17596 22.4698 7.12135 22.4594 7.07418 22.4442C7.03328 22.4307 6.9969 22.4119 6.95852 22.3863C6.89072 22.3423 6.8159 22.2704 6.72877 22.1716C6.66361 22.0979 6.59313 22.0103 6.50998 21.9165C6.38623 21.7754 6.23395 21.6146 6.01967 21.4847C5.91303 21.4196 5.79057 21.3648 5.65715 21.3262C5.5235 21.2889 5.37865 21.2687 5.22707 21.2691C5.05076 21.2686 4.88412 21.2956 4.73248 21.3463C4.60041 21.3899 4.48229 21.4506 4.37893 21.5193C4.1977 21.6401 4.06358 21.7798 3.95219 21.9065C3.8684 22.0008 3.79721 22.0898 3.73164 22.1639C3.63326 22.2766 3.54971 22.3543 3.47559 22.3993C3.43738 22.4217 3.40147 22.4379 3.35922 22.45C3.31697 22.4617 3.26711 22.4693 3.20067 22.4698C3.12315 22.4693 3.06883 22.4594 3.02166 22.4442C2.98082 22.4307 2.94467 22.4119 2.90553 22.3863C2.83861 22.3423 2.76291 22.2709 2.67666 22.1716C2.61133 22.0979 2.54055 22.0103 2.45793 21.916C2.33371 21.7754 2.18143 21.615 1.96738 21.4843C1.86074 21.4196 1.73875 21.3648 1.60492 21.3262C1.47098 21.2889 1.32613 21.2687 1.17432 21.2691C0.898048 21.2691 0.674103 21.4933 0.674103 21.7695C0.674103 22.0458 0.898048 22.2699 1.17432 22.2699C1.25201 22.2701 1.30633 22.2809 1.35332 22.2967Z" fill="black"/>
<path d="M20.9375 7.32826L21.8255 3.24193L25.0414 1.37455L24.2435 0L20.4212 2.21906L19.3105 7.32826H9.31544L9.37626 8.12291L9.84272 14.184C9.66712 14.1754 9.4901 14.171 9.31198 14.171C5.13776 14.171 1.70136 16.5581 1.25639 19.2196C1.24046 19.3157 1.22809 19.3409 1.21889 19.3678C1.21104 19.3938 1.20653 19.42 1.20653 19.5178C1.20653 20.0879 1.52417 20.3884 2.07507 20.3884H16.5488C17.0989 20.3884 17.4171 20.0879 17.4171 19.5178C17.4171 19.3233 17.3999 19.4109 17.3669 19.2196C17.1447 17.8863 16.1706 16.6218 14.73 15.6911C14.2622 15.3888 13.7456 15.1237 13.1895 14.9009C12.6105 14.6701 11.9892 14.4867 11.3356 14.3619L10.9088 8.80348H23.732L22.3199 27.1938H17.2534C17.0764 26.9769 16.8163 26.8479 16.4522 26.8479H12.2948H10.8144H2.17485C1.34634 26.8479 1.05682 27.5208 1.05682 28.3492V28.4996C1.05682 29.328 1.72884 30 2.55764 30H16.0663C16.8371 30 17.4736 29.4187 17.5578 28.6695H23.687L25.3259 7.32826H20.9375ZM4.87661 17.2516C4.65647 17.2516 4.47723 17.0724 4.47723 16.8514C4.47723 16.63 4.65641 16.4503 4.87661 16.4503C5.09827 16.4503 5.27751 16.63 5.27751 16.8514C5.27751 17.0724 5.09833 17.2516 4.87661 17.2516ZM6.4785 16.0505C6.25702 16.0505 6.07778 15.8712 6.07778 15.6502C6.07778 15.4287 6.25702 15.249 6.4785 15.249C6.69969 15.249 6.87917 15.4287 6.87917 15.6502C6.87917 15.8712 6.69969 16.0505 6.4785 16.0505ZM7.87907 17.2516C7.65782 17.2516 7.47841 17.0724 7.47841 16.8514C7.47841 16.63 7.65782 16.4503 7.87907 16.4503C8.10073 16.4503 8.27997 16.63 8.27997 16.8514C8.28003 17.0724 8.10079 17.2516 7.87907 17.2516ZM9.08024 15.5501C8.85905 15.5501 8.67934 15.3708 8.67934 15.1498C8.67934 14.9293 8.85905 14.75 9.08024 14.75C9.30149 14.75 9.48114 14.9293 9.48114 15.1498C9.48114 15.3708 9.30149 15.5501 9.08024 15.5501ZM13.8831 16.5504C14.1048 16.5504 14.284 16.7297 14.284 16.9511C14.284 17.1721 14.1048 17.3518 13.8831 17.3518C13.663 17.3518 13.4838 17.1721 13.4838 16.9511C13.4838 16.7297 13.663 16.5504 13.8831 16.5504ZM11.8817 15.2446C12.1034 15.2446 12.2826 15.4238 12.2826 15.6444C12.2826 15.8667 12.1034 16.046 11.8817 16.046C11.6607 16.046 11.4824 15.8667 11.4824 15.6444C11.4824 15.4239 11.6607 15.2446 11.8817 15.2446ZM10.9817 16.9511C10.9817 17.1721 10.8023 17.3518 10.5808 17.3518C10.3607 17.3518 10.1815 17.1721 10.1815 16.9511C10.1815 16.7296 10.3607 16.5504 10.5808 16.5504C10.8023 16.5504 10.9817 16.7297 10.9817 16.9511Z" fill="black"/>
</svg>
