<svg width="30" height="25" viewBox="0 0 30 25" fill="none" xmlns="http://www.w3.org/2000/svg">
<path d="M19.1259 8.56534C19.6912 6.69656 19.3017 5.49324 18.5044 4.46453C17.5929 3.28877 15.9644 2.96671 15.0505 2.11838C15.3669 2.0913 15.6186 1.83161 15.6186 1.5056C15.6186 1.16177 15.3414 0.882671 15 0.882671C14.6586 0.882671 14.3814 1.16177 14.3814 1.5056C14.3814 1.83155 14.6331 2.0913 14.9496 2.11838C14.0356 2.96671 12.4071 3.28883 11.4955 4.46453C10.6983 5.49324 10.3088 6.69656 10.8741 8.56534H19.1259Z" fill="black"/>
<path d="M19.1754 20.4755V9.27148H10.8246V20.4755H13.3834V16.0197H13.3878C13.4099 15.7015 13.5319 15.4476 13.7105 15.2174C14.0515 14.7773 14.6672 14.6631 15 14.3386C15.3328 14.6631 15.9486 14.7772 16.2896 15.2174C16.4682 15.4476 16.5902 15.7015 16.6123 16.0197H16.6166V20.4755H19.1754V20.4755Z" fill="black"/>
<path d="M15 0.726957C15.1993 0.726957 15.3612 0.564395 15.3612 0.363714C15.3612 0.162975 15.1993 0 15 0C14.8006 0 14.6393 0.162975 14.6393 0.363714C14.6393 0.564395 14.8006 0.726957 15 0.726957Z" fill="black"/>
<path d="M0.589854 20.4755H3.21831L3.10827 14.4571H3.43728V13.9555H3.09919L3.05454 11.5097H3.43728V11.0077H3.0454L3.00169 8.62476H3.18028V8.12321H2.9469V7.24496H3.18028V6.74341H2.96231C2.96231 6.15482 2.48876 5.67699 1.90376 5.67699C1.31935 5.67699 0.845264 6.15482 0.845264 6.74341H0.627236V7.24496H0.860615V8.12321H0.627236V8.62476H0.806416L0.762705 11.0077H0.370361V11.5097H0.753623L0.708916 13.9555H0.370361V14.4571H0.699834L0.589854 20.4755ZM2.44892 8.12327H2.15313V7.24502H2.44892V8.12327ZM1.35872 7.24496H1.65509V8.12321H1.35872V7.24496Z" fill="black"/>
<path d="M26.7822 20.4755H29.4106L29.3007 14.4571H29.6297V13.9555H29.2916L29.2469 11.5097H29.6297V11.0077H29.2378L29.1941 8.62476H29.3727V8.12321H29.1393V7.24496H29.3727V6.74341H29.1547C29.1547 6.15482 28.6807 5.67699 28.0962 5.67699C27.5117 5.67699 27.0377 6.15482 27.0377 6.74341H26.8197V7.24496H27.0531V8.12321H26.8197V8.62476H26.9983L26.9546 11.0077H26.5627V11.5097H26.9455L26.9008 13.9555H26.5627V14.4571H26.8917L26.7822 20.4755ZM28.6412 8.12327H28.3453V7.24502H28.6412V8.12327ZM27.551 7.24496H27.8474V8.12321H27.551V7.24496Z" fill="black"/>
<path d="M6.49085 20.4755H7.50031V19.0072H7.50224C7.51232 18.8645 7.5671 18.7503 7.64726 18.6468C7.80048 18.449 8.0771 18.3983 8.22652 18.2522C8.37634 18.3982 8.65249 18.449 8.80566 18.6468C8.88587 18.7503 8.9406 18.8645 8.95068 19.0072H8.95261V20.4755H10.1336V12.2381H10.1303V11.4778H10.3517C10.6427 10.5154 10.4419 9.89535 10.0313 9.36577C9.55396 8.74962 8.69234 8.59054 8.22652 8.13584C7.76064 8.59048 6.89908 8.74962 6.42171 9.36577C6.01109 9.89541 5.81035 10.5154 6.10132 11.4778H6.31548V12.3619L5.07312 13.2412V20.4755H6.31894H6.49085ZM8.95261 16.5517H7.50031V15.0834H7.50224C7.51232 14.9407 7.5671 14.8261 7.64726 14.7231C7.80048 14.5257 8.0771 14.4744 8.22652 14.3284C8.37634 14.4745 8.65249 14.5257 8.80566 14.7231C8.88587 14.8261 8.9406 14.9407 8.95068 15.0834H8.95261V16.5517ZM9.40888 12.2381H8.58376V11.4778H9.40888V12.2381ZM7.86195 11.4778V12.2381H7.0373V11.4778H7.86195Z" fill="black"/>
<path d="M19.8698 11.4778V12.2381H19.8664V20.4755H21.0474V19.0072H21.0493C21.0594 18.8645 21.1141 18.7503 21.1943 18.6468C21.3475 18.449 21.6237 18.3983 21.7735 18.2522C21.9229 18.3982 22.1995 18.449 22.3527 18.6468C22.4329 18.7503 22.4877 18.8645 22.4977 19.0072H22.4997V20.4755H23.5091H23.6811H24.9269V13.2412L23.6845 12.3619V11.4778H23.8987C24.1897 10.5154 23.989 9.89535 23.5783 9.36577C23.101 8.74962 22.2393 8.59054 21.7735 8.13584C21.3076 8.59048 20.446 8.74962 19.9687 9.36577C19.558 9.89541 19.3573 10.5154 19.6484 11.4778H19.8698ZM20.5912 12.2381V11.4778H21.4162V12.2381H20.5912ZM22.4997 16.5517H21.0474V15.0834H21.0493C21.0594 14.9407 21.1141 14.8261 21.1943 14.7231C21.3475 14.5257 21.6237 14.4744 21.7735 14.3284C21.9229 14.4745 22.1995 14.5257 22.3527 14.7231C22.4329 14.8261 22.4877 14.9407 22.4977 15.0834H22.4997V16.5517ZM22.9626 12.2381H22.138V11.4778H22.9626V12.2381Z" fill="black"/>
<path d="M30 20.8474H0V25H30V20.8474Z" fill="black"/>
</svg>
