<svg width="26" height="24" viewBox="0 0 26 24" fill="none" xmlns="http://www.w3.org/2000/svg">
<path d="M24.4824 6.59381C24.2676 6.57184 24.1089 6.37897 24.1309 6.16168C24.1528 5.94684 24.3457 5.78815 24.563 5.81012C25.0464 5.86139 25.5078 6.01031 25.9302 6.26422C26.1353 6.38629 26.3281 6.53277 26.5112 6.70367C26.5942 6.50104 26.6968 6.31305 26.814 6.13727C27.0752 5.75152 27.4146 5.43414 27.8149 5.20221C28.0029 5.09234 28.2446 5.15826 28.3521 5.34625C28.4619 5.53424 28.396 5.77594 28.208 5.88336C27.9102 6.05426 27.6587 6.29108 27.4658 6.57672C27.2778 6.85748 27.1436 7.18707 27.0776 7.55572C27.063 7.6607 27.0093 7.75836 26.9165 7.82428C26.7407 7.95123 26.4941 7.90973 26.3672 7.73395C26.1206 7.38727 25.835 7.12359 25.5249 6.93805C25.2051 6.74518 24.8535 6.63287 24.4824 6.59381ZM9.03076 9.47223V22.5118H10.5444L12.3071 20.5733H11.3721V19.3892H14.2676L11.001 15.7686L11.8799 14.9776L13.8574 17.1675V17.0821H18.6987C18.9111 17.0821 19.0991 17.1944 19.2041 17.3629L20.6348 19.3868H23.3228C23.501 19.3868 23.6621 19.4649 23.7695 19.5919L26.7139 22.5118H30V23.6959H0.170898V22.5118H8.11035V9.47223H0.461426C0.20752 9.47223 0 9.26715 0 9.0108C0 8.99615 0 8.98151 0.00244141 8.96442C0.0219727 6.66461 0.981445 4.58697 2.52197 3.08063C4.04297 1.59869 6.12793 0.668517 8.43262 0.636778C8.47656 0.62213 8.52539 0.614806 8.57422 0.614806C8.62305 0.614806 8.67188 0.62213 8.71826 0.636778C11.0107 0.678282 13.0811 1.60602 14.5947 3.08307C16.145 4.59918 17.1069 6.69391 17.1143 9.0108C17.1143 9.26471 16.9092 9.46979 16.6553 9.46979V9.47223H9.03076ZM12.1436 22.5142H25.0342L23.0786 20.5757H13.9062L12.1436 22.5142ZM15.8618 19.3892H19.1846L18.3936 18.2686H14.8511L15.8618 19.3892ZM20.4883 1.94049C20.2368 1.97223 20.0073 1.79645 19.9731 1.54498C19.9414 1.29352 20.1172 1.06402 20.3687 1.02984C21.1646 0.924864 21.9336 1.02008 22.6294 1.33014C23.0493 1.51813 23.4375 1.7818 23.7866 2.12848C23.9771 1.70123 24.2358 1.32525 24.5532 1.01031C25.0781 0.490294 25.7544 0.141173 26.5259 0.00689551C26.7773 -0.0370498 27.0142 0.133849 27.0581 0.382872C27.1021 0.634337 26.9312 0.871153 26.6821 0.915099C26.1011 1.0152 25.5933 1.27643 25.2051 1.66217C24.8193 2.04303 24.5459 2.55328 24.4263 3.15631H24.4238C24.4019 3.27106 24.3359 3.37848 24.231 3.44928C24.021 3.59088 23.7354 3.53717 23.5938 3.32721C23.2227 2.78033 22.7661 2.39947 22.2559 2.17242C21.7212 1.92828 21.1206 1.85748 20.4883 1.94049ZM13.9526 3.74225C13.3276 3.1319 12.5928 2.62408 11.7822 2.25543C12.0947 2.70709 12.3584 3.22223 12.5732 3.79108C13.0737 5.11188 13.3179 6.73541 13.3423 8.55182H16.1792C16.0571 6.67682 15.2295 4.98981 13.9526 3.74225ZM9.90723 1.67438C9.62158 1.62555 9.33105 1.59137 9.03564 1.57184V8.55182H12.4243C12.4023 6.84772 12.1753 5.33404 11.7139 4.11578C11.3037 3.02936 10.708 2.18707 9.90723 1.67438ZM8.11279 1.5694C7.82227 1.58649 7.53418 1.61822 7.25342 1.66461C6.44287 2.17975 5.83984 3.02936 5.42725 4.13043C4.9707 5.34381 4.74609 6.85504 4.72412 8.54938H8.11279V1.5694ZM5.3833 2.23346C4.55322 2.60699 3.80127 3.11969 3.16406 3.74469C1.88721 4.99225 1.05957 6.67926 0.9375 8.55182H3.80859C3.83057 6.74518 4.07471 5.12652 4.57031 3.80817C4.7876 3.22223 5.05859 2.69244 5.3833 2.23346Z" fill="black"/>
</svg>
