<svg width="33" height="29" viewBox="0 0 33 29" fill="none" xmlns="http://www.w3.org/2000/svg">
<path fill-rule="evenodd" clip-rule="evenodd" d="M11 2.4375C7.39426 2.4375 4.125 5.5284 4.125 9.75C4.125 13.4259 6.60374 16.2446 9.62502 16.9119V11.621L6.1123 9.54533L7.63772 7.5172L10.6187 9.27867L12.6059 6.63647L14.894 7.98855L12.375 11.3378V16.9119C15.3963 16.2446 17.875 13.4259 17.875 9.75C17.875 5.5284 14.6058 2.4375 11 2.4375ZM1.375 9.75C1.375 14.5088 4.82154 18.7206 9.62502 19.4035V25.5938H0V28.0312H33V25.5938H28.875V23.1562L27.5 21.9375H16.5L15.125 23.1562V25.5938H12.375V19.4035C17.1785 18.7206 20.625 14.5088 20.625 9.75C20.625 4.54824 16.507 0 11 0C5.49305 0 1.375 4.54824 1.375 9.75ZM17.875 25.5938H26.125V24.375H17.875V25.5938Z" fill="#080341"/>
</svg>
