<svg width="28" height="24" viewBox="0 0 28 24" fill="none" xmlns="http://www.w3.org/2000/svg">
<path d="M26.1926 3.375C25.7426 1.425 23.9426 0 21.8426 0H6.09256C5.08715 0.000278415 4.10965 0.330661 3.31023 0.940389C2.51081 1.55012 1.93369 2.40546 1.66756 3.375L0.0925567 9.375C-0.207443 10.425 0.242557 11.475 1.14256 12.075L1.44256 12.3C1.89256 12.525 2.26756 12.75 2.71756 12.825V21C2.71993 21.7949 3.03676 22.5566 3.59886 23.1187C4.16095 23.6808 4.92264 23.9976 5.71756 24H9.24256C10.0375 23.9976 10.7992 23.6808 11.3613 23.1187C11.9233 22.5566 12.2402 21.7949 12.2426 21V18H16.3676V21C16.3699 21.7949 16.6868 22.5566 17.2489 23.1187C17.811 23.6808 18.5726 23.9976 19.3676 24H22.2176C23.0125 23.9976 23.7742 23.6808 24.3363 23.1187C24.8984 22.5566 25.2152 21.7949 25.2176 21V12.825C25.643 12.7545 26.0507 12.6017 26.4176 12.375L26.7176 12.15C27.1624 11.8569 27.5034 11.4308 27.6919 10.9325C27.8805 10.4343 27.9069 9.88919 27.7676 9.375L26.1926 3.375ZM22.3676 21H19.3676V18C19.3652 17.2051 19.0483 16.4434 18.4863 15.8813C17.9242 15.3192 17.1625 15.0024 16.3676 15H12.2426C11.4476 15.0024 10.686 15.3192 10.1239 15.8813C9.56176 16.4434 9.24493 17.2051 9.24256 18V21H5.71756V12C6.69256 11.625 7.74256 11.775 8.64256 12.3C9.17131 12.6664 9.79928 12.8627 10.4426 12.8627C11.0858 12.8627 11.7138 12.6664 12.2426 12.3C12.7713 11.9336 13.3993 11.7373 14.0426 11.7373C14.6858 11.7373 15.3138 11.9336 15.8426 12.3C16.3713 12.6664 16.9993 12.8627 17.6426 12.8627C18.2858 12.8627 18.9138 12.6664 19.4426 12.3C19.8683 12.0143 20.3576 11.8375 20.8676 11.7852C21.3777 11.7329 21.8927 11.8067 22.3676 12V21ZM24.5426 9.825C23.5267 9.12891 22.324 8.7564 21.0926 8.7564C19.8611 8.7564 18.6584 9.12891 17.6426 9.825C17.6294 9.8424 17.6124 9.85651 17.5929 9.86623C17.5734 9.87595 17.5519 9.881 17.5301 9.881C17.5083 9.881 17.4867 9.87595 17.4672 9.86623C17.4477 9.85651 17.4307 9.8424 17.4176 9.825C16.4017 9.12891 15.199 8.7564 13.9676 8.7564C12.7361 8.7564 11.5334 9.12891 10.5176 9.825C10.5044 9.8424 10.4874 9.85651 10.4679 9.86623C10.4484 9.87595 10.4269 9.881 10.4051 9.881C10.3833 9.881 10.3617 9.87595 10.3422 9.86623C10.3227 9.85651 10.3057 9.8424 10.2926 9.825C9.27669 9.12891 8.07403 8.7564 6.84256 8.7564C5.61109 8.7564 4.40842 9.12891 3.39256 9.825C3.37941 9.8424 3.36241 9.85651 3.34289 9.86623C3.32337 9.87595 3.30186 9.881 3.28006 9.881C3.25825 9.881 3.23674 9.87595 3.21722 9.86623C3.1977 9.85651 3.1807 9.8424 3.16756 9.825L4.59256 4.125C4.74256 3.45 5.34256 3 6.09256 3H21.9176C22.2479 2.99656 22.5694 3.10631 22.8286 3.31098C23.0879 3.51566 23.2692 3.80293 23.3426 4.125L24.7676 9.825C24.7676 9.825 24.6176 9.9 24.5426 9.825Z" fill="black"/>
</svg>
