<svg width="25" height="26" viewBox="0 0 25 26" fill="none" xmlns="http://www.w3.org/2000/svg">
<path fill-rule="evenodd" clip-rule="evenodd" d="M12.7542 8.42677C10.27 8.42677 8.25607 10.4406 8.25607 12.9249C8.25607 15.4091 10.27 17.423 12.7542 17.423C15.2385 17.423 17.2523 15.4091 17.2523 12.9249C17.2523 10.4406 15.2385 8.42677 12.7542 8.42677ZM10.0553 12.9249C10.0553 11.4344 11.2637 10.226 12.7542 10.226C14.2447 10.226 15.453 11.4344 15.453 12.9249C15.453 14.4154 14.2447 15.6237 12.7542 15.6237C11.2637 15.6237 10.0553 14.4154 10.0553 12.9249Z" fill="#2032D3"/>
<path fill-rule="evenodd" clip-rule="evenodd" d="M12.7238 0.0303045C12.1908 0.0302925 11.7456 0.0302924 11.3803 0.0552179C10.9999 0.081175 10.6407 0.137119 10.2924 0.281395C9.48411 0.616186 8.84195 1.25834 8.50716 2.06659C8.33287 2.48737 8.28567 2.93083 8.26764 3.41283C8.25315 3.80031 8.05761 4.12359 7.76902 4.2902C7.48045 4.45681 7.1027 4.46451 6.7599 4.28333C6.33346 4.05793 5.92581 3.87707 5.47425 3.81763C4.60689 3.70343 3.72969 3.93849 3.03562 4.47106C2.73652 4.70057 2.50842 4.98374 2.29578 5.30017C2.09149 5.60413 1.86897 5.98958 1.60241 6.45128L1.57212 6.50375C1.30554 6.96545 1.08301 7.35087 0.92191 7.67976C0.754209 8.02214 0.62302 8.36127 0.573805 8.73505C0.459613 9.60242 0.694666 10.4796 1.22723 11.1737C1.50446 11.5349 1.86485 11.7976 2.2732 12.0542C2.6016 12.2605 2.78384 12.5915 2.78381 12.9249C2.7838 13.2581 2.60156 13.5892 2.2732 13.7955C1.8648 14.052 1.50437 14.3147 1.22712 14.676C0.694546 15.37 0.459505 16.2472 0.573685 17.1146C0.6229 17.4884 0.754089 17.8276 0.92179 18.1699C1.08289 18.4988 1.30542 18.8842 1.57199 19.3459L1.60229 19.3984C1.86885 19.8601 2.09137 20.2455 2.29566 20.5495C2.5083 20.8659 2.7364 21.1491 3.0355 21.3786C3.72957 21.9111 4.60677 22.1462 5.47413 22.032C5.92566 21.9725 6.33329 21.7918 6.75971 21.5664C7.10256 21.3852 7.48035 21.3928 7.76896 21.5596C8.05759 21.7262 8.25315 22.0494 8.26764 22.437C8.28567 22.9189 8.33288 23.3624 8.50716 23.7832C8.84195 24.5914 9.48411 25.2336 10.2924 25.5684C10.6407 25.7127 10.9999 25.7686 11.3803 25.7945C11.7456 25.8194 12.1908 25.8194 12.7238 25.8194H12.7844C13.3176 25.8194 13.7626 25.8194 14.1281 25.7945C14.5084 25.7686 14.8677 25.7127 15.216 25.5684C16.0242 25.2336 16.6665 24.5914 17.0012 23.7832C17.1755 23.3624 17.2227 22.9189 17.2407 22.4369C17.2552 22.0494 17.4507 21.7262 17.7393 21.5594C18.0279 21.3928 18.4057 21.3852 18.7485 21.5663C19.175 21.7917 19.5826 21.9725 20.0342 22.0319C20.9015 22.1461 21.7787 21.9111 22.4727 21.3786C22.7719 21.149 22.9999 20.8659 23.2126 20.5495C23.4169 20.2455 23.6394 19.8601 23.9059 19.3984L23.9362 19.3459C24.2028 18.8842 24.4254 18.4987 24.5865 18.1698C24.7542 17.8275 24.8853 17.4884 24.9346 17.1146C25.0488 16.2471 24.8137 15.3699 24.2811 14.6759C24.0039 14.3146 23.6434 14.052 23.2351 13.7955C22.9067 13.5892 22.7245 13.2581 22.7245 12.9248C22.7245 12.5915 22.9067 12.2606 23.235 12.0543C23.6436 11.7977 24.004 11.5351 24.2812 11.1737C24.8138 10.4797 25.0489 9.6025 24.9347 8.73514C24.8854 8.36135 24.7543 8.02223 24.5866 7.67984C24.4255 7.35098 24.203 6.96558 23.9364 6.50392L23.9061 6.45142C23.6395 5.9897 23.417 5.60421 23.2127 5.30025C23 4.98382 22.772 4.70066 22.4729 4.47113C21.7788 3.93857 20.9016 3.70352 20.0342 3.81771C19.5827 3.87716 19.1751 4.05799 18.7487 4.28338C18.4058 4.46459 18.028 4.45687 17.7394 4.29024C17.4508 4.12362 17.2552 3.80028 17.2407 3.41277C17.2227 2.93078 17.1755 2.48735 17.0012 2.06659C16.6665 1.25834 16.0242 0.616186 15.216 0.281395C14.8677 0.137119 14.5084 0.081175 14.1281 0.0552179C13.7626 0.0302924 13.3176 0.0302925 12.7844 0.0303045H12.7238ZM10.9809 1.94368C11.0735 1.90534 11.214 1.86999 11.5028 1.85029C11.7996 1.83004 12.183 1.82955 12.7542 1.82955C13.3254 1.82955 13.7087 1.83004 14.0055 1.85029C14.2943 1.86999 14.4349 1.90534 14.5274 1.94368C14.8948 2.09586 15.1868 2.38774 15.3389 2.75514C15.387 2.87102 15.4267 3.05168 15.4427 3.48002C15.4782 4.43047 15.9688 5.34561 16.8398 5.84843C17.7106 6.35126 18.7485 6.31854 19.5894 5.8741C19.9683 5.67381 20.1448 5.61794 20.269 5.60156C20.6633 5.54966 21.062 5.6565 21.3775 5.89857C21.457 5.95955 21.5579 6.06363 21.7193 6.30386C21.8853 6.5508 22.0774 6.88254 22.363 7.37721C22.6486 7.87189 22.8399 8.20412 22.9708 8.47131C23.098 8.73123 23.1377 8.87067 23.1508 8.96998C23.2027 9.36423 23.0959 9.76297 22.8538 10.0784C22.7774 10.178 22.6409 10.3028 22.2778 10.5308C21.4726 11.0369 20.9254 11.9192 20.9253 12.9248C20.9253 13.9304 21.4725 14.8129 22.2778 15.3189C22.6408 15.547 22.7773 15.6717 22.8537 15.7713C23.0958 16.0867 23.2026 16.4855 23.1507 16.8797C23.1376 16.979 23.0979 17.1184 22.9706 17.3784C22.8398 17.6455 22.6485 17.9777 22.3629 18.4724C22.0773 18.9671 21.8852 19.2989 21.7192 19.5458C21.5578 19.786 21.4569 19.8901 21.3774 19.951C21.0619 20.1932 20.6632 20.3 20.2689 20.2482C20.1446 20.2317 19.9682 20.1758 19.5893 19.9756C18.7484 19.5311 17.7105 19.4985 16.8395 20.0013C15.9688 20.5041 15.4782 21.4192 15.4427 22.3697C15.4267 22.798 15.387 22.9787 15.3389 23.0947C15.1868 23.462 14.8948 23.7539 14.5274 23.9061C14.4349 23.9444 14.2943 23.9798 14.0055 23.9995C13.7087 24.0197 13.3254 24.0202 12.7542 24.0202C12.183 24.0202 11.7996 24.0197 11.5028 23.9995C11.214 23.9798 11.0735 23.9444 10.9809 23.9061C10.6136 23.7539 10.3216 23.462 10.1694 23.0947C10.1214 22.9787 10.0816 22.798 10.0656 22.3697C10.0301 21.4193 9.5395 20.5041 8.66858 20.0013C7.79768 19.4985 6.75985 19.5312 5.91896 19.9756C5.54 20.1759 5.36365 20.2318 5.23929 20.2482C4.84503 20.3001 4.4463 20.1932 4.13082 19.9512C4.05134 19.8902 3.95043 19.7861 3.78899 19.5458C3.62304 19.299 3.43094 18.9672 3.14534 18.4725C2.85973 17.9779 2.66848 17.6456 2.53761 17.3785C2.41029 17.1185 2.37061 16.979 2.35754 16.8797C2.30564 16.4855 2.41247 16.0867 2.65456 15.7713C2.73092 15.6718 2.86748 15.547 3.23043 15.3189C4.03575 14.813 4.58301 13.9305 4.58306 12.925C4.58312 11.9192 4.03584 11.0367 3.23045 10.5307C2.86758 10.3026 2.73102 10.1779 2.65466 10.0784C2.41259 9.76289 2.30576 9.36416 2.35766 8.9699C2.37073 8.87059 2.41041 8.73114 2.53773 8.47123C2.6686 8.20404 2.85985 7.87181 3.14545 7.37713C3.43106 6.88246 3.62315 6.55071 3.78911 6.30377C3.95055 6.06356 4.05146 5.95947 4.13093 5.8985C4.44642 5.65642 4.84515 5.54958 5.2394 5.60148C5.36377 5.61785 5.54013 5.67372 5.91914 5.87405C6.75998 6.31848 7.79776 6.35119 8.66863 5.84839C9.53951 5.3456 10.0301 4.4305 10.0656 3.48008C10.0816 3.0517 10.1214 2.87103 10.1694 2.75514C10.3216 2.38774 10.6136 2.09586 10.9809 1.94368Z" fill="#2032D3"/>
</svg>
